<svg xmlns="http://www.w3.org/2000/svg" xmlns:xlink="http://www.w3.org/1999/xlink" viewBox="0 0 71.63 48.22"><defs><style>.cls-1,.cls-2{fill:none;stroke-miterlimit:10;stroke-width:1.74px;}.cls-1,.cls-2,.cls-3{fill-rule:evenodd;}.cls-1{stroke:url(#linear-gradient);}.cls-2{stroke:url(#linear-gradient-2);}.cls-3{fill:url(#linear-gradient-3);}</style><linearGradient id="linear-gradient" y1="24.11" x2="53.89" y2="24.11" gradientUnits="userSpaceOnUse"><stop offset="0" stop-color="#25c4f4"/><stop offset="1" stop-color="#376cb5"/></linearGradient><linearGradient id="linear-gradient-2" x1="15.45" y1="24.88" x2="71.63" y2="24.88" xlink:href="#linear-gradient"/><linearGradient id="linear-gradient-3" x1="31.44" y1="24.89" x2="44.77" y2="24.89" xlink:href="#linear-gradient"/></defs><g id="Layer_2" data-name="Layer 2"><g id="Layer_1-2" data-name="Layer 1"><path class="cls-1" d="M35.18,1.57A14.19,14.19,0,0,1,41.42,1c4.71.64,7.42,2.78,9.33,6.46,7.4,14.2-5.21,31.05-10.06,39.89-16.3.25-39.82-6-39.82-21a12.27,12.27,0,0,1,5.2-10.13c2.56-1.91,5.4-2.69,9.11-3.3a17.89,17.89,0,0,1,3.87-.21l3.67.18c2.44-4,5.11-7.73,9.23-10a11.39,11.39,0,0,1,2.18-.94Z"/><path class="cls-2" d="M60.46,5.12a14.29,14.29,0,0,1,5.63,2.74,11.24,11.24,0,0,1,4.64,10.36c-1,16-20.54,23.86-29.27,28.91C27.38,38.9,10.5,21.37,18.28,8.52a12.3,12.3,0,0,1,9.7-6c3.18-.3,6,.5,9.5,1.89A18.43,18.43,0,0,1,40.9,6.27L44,8.33c4.16-2.16,8.37-4,13.08-3.8a12.43,12.43,0,0,1,2.35.33Z"/><path class="cls-3" d="M44.25,21.53h-5v-6A.52.52,0,0,0,38.7,15H37.5a.52.52,0,0,0-.52.52v6H32a.51.51,0,0,0-.51.52v1.2a.51.51,0,0,0,.51.52h5V34.24a.52.52,0,0,0,.52.52h1.2a.52.52,0,0,0,.52-.52V23.77h5a.52.52,0,0,0,.52-.52v-1.2A.52.52,0,0,0,44.25,21.53Z"/></g></g></svg>